# xmcd CD database file
#
# Track frame offsets:
#	150
#	12338
#	25465
#	38624
#	52770
#	65628
#	78494
#	91418
#	110955
#	124358
#	137764
#	151752
#	165785
#	179259
#
# Disc length: 2578 seconds
#
# Revision: 1
# Processed by: cddbd v1.5.1PL0 Copyright (c) Steve Scherf et al.
# Submitted via: CDex 1.51
#
DISCID=b00a100e
DTITLE=Orquesta Sublime - Verano De Amor
DYEAR=2001
DGENRE=Salsa
TTITLE0=El Viejo Don Julio
TTITLE1=Mi Corazonada
TTITLE2=Dulce Ternura
TTITLE3=No Seas Tan Guapo
TTITLE4=A Una Ola
TTITLE5=Veano De Amor
TTITLE6=El Divertido
TTITLE7=Caimitillo y Marañon
TTITLE8=Importancias
TTITLE9=Sabroso Como El Guarpo
TTITLE10=Tras La Reja
TTITLE11=Fue Todo Mi Querer
TTITLE12=Vamos A Bailar Charnga
TTITLE13=Sacando Manteca
EXTD=YEAR: 2001
EXTT0=
EXTT1=
EXTT2=
EXTT3=
EXTT4=
EXTT5=
EXTT6=
EXTT7=
EXTT8=
EXTT9=
EXTT10=
EXTT11=
EXTT12=
EXTT13=
PLAYORDER=
